<svg width="101" height="25" viewBox="0 0 101 25" fill="none" xmlns="http://www.w3.org/2000/svg">
<path d="M2.34865 6.96533L0.571154 6.43208V5.89883H5.0149C6.2473 5.89883 7.219 6.15953 7.93 6.68093C8.6647 7.17863 9.29275 7.92518 9.81415 8.92058L14.0446 17.1326L17.9907 7.49858L15.3244 6.43208V5.89883H21.9012V6.43208L19.0572 7.49858L12.3027 24.0293H11.2362L2.34865 6.96533ZM31.501 24.2071C28.4674 24.2071 26.1093 23.3776 24.4266 21.7186C22.7439 20.0359 21.9025 17.7251 21.9025 14.7863C21.9025 12.8666 22.2699 11.1958 23.0046 9.77378C23.7393 8.35178 24.7584 7.26158 26.0619 6.50318C27.3891 5.74478 28.9059 5.36558 30.6123 5.36558C32.3187 5.36558 33.8118 5.68553 35.0916 6.32543C36.3951 6.96533 37.3905 7.83038 38.0778 8.92058C38.7888 9.98708 39.1443 11.1721 39.1443 12.4756C39.1443 13.0681 39.085 13.5776 38.9665 14.0042L38.7888 14.6086C37.7697 14.8219 36.6676 14.9996 35.4826 15.1418C32.9941 15.4973 30.4819 15.6751 27.946 15.6751C27.946 18.4243 28.3252 20.3914 29.0836 21.5764C29.842 22.7377 30.8848 23.3183 32.212 23.3183C33.1363 23.3183 33.9895 23.105 34.7716 22.6784C35.5774 22.2281 36.2055 21.6475 36.6558 20.9365C37.1298 20.2018 37.3668 19.4552 37.3668 18.6968H38.2555C38.2555 19.6448 37.9711 20.5454 37.4023 21.3986C36.8335 22.2518 36.0396 22.9391 35.0205 23.4605C34.0014 23.9582 32.8282 24.2071 31.501 24.2071ZM27.946 14.7863C29.4628 14.7863 30.6952 14.7271 31.6432 14.6086C32.0461 14.5849 32.4727 14.5256 32.923 14.4308C32.9467 14.3123 33.006 14.0516 33.1008 13.6487C33.2193 13.0562 33.2785 12.4282 33.2785 11.7646C33.2785 9.79748 33.0178 8.36363 32.4964 7.46303C31.975 6.53873 31.347 6.07658 30.6123 6.07658C28.8348 6.07658 27.946 8.97983 27.946 14.7863ZM41.7953 23.1406L43.9283 22.6073V6.96533L41.7953 6.43208V5.89883H44.9948C46.3931 5.89883 47.4951 6.34913 48.3009 7.24973C48.609 7.60523 48.8697 8.04368 49.083 8.56508C49.4148 7.94888 49.8059 7.41563 50.2562 6.96533C51.3227 5.89883 52.6499 5.36558 54.2378 5.36558C55.565 5.36558 56.75 5.64998 57.7928 6.21878C58.8593 6.76388 59.6888 7.48673 60.2813 8.38733C60.8738 9.28793 61.17 10.2359 61.17 11.2313V22.6073L63.303 23.1406V23.6738H58.6815C56.5485 23.6738 55.482 22.6073 55.482 20.4743V11.2313C55.482 9.73823 55.2095 8.60063 54.6644 7.81853C54.143 7.01273 53.5268 6.60983 52.8158 6.60983C51.9152 6.60983 51.1094 7.08383 50.3984 8.03183C50.0903 8.43473 49.8296 8.90873 49.6163 9.45383V22.6073L51.7493 23.1406V23.6738H41.7953V23.1406ZM74.6804 24.2071C73.1162 24.2071 71.7535 23.9227 70.5922 23.3539C69.4546 22.7851 68.5777 22.003 67.9615 21.0076C67.3453 20.0122 67.0372 18.8864 67.0372 17.6303V6.78758H64.5487V5.89883H67.0372V4.12133C67.0372 1.98833 68.1037 0.921827 70.2367 0.921827H72.7252V5.89883H77.7022V6.78758H72.7252V17.6303C72.7252 19.8107 72.9503 21.3038 73.4006 22.1096C73.8509 22.9154 74.5145 23.3183 75.3914 23.3183C76.2446 23.3183 76.9912 22.9036 77.6311 22.0741C78.271 21.2446 78.5909 20.1188 78.5909 18.6968H79.4797C79.4797 20.4506 79.0412 21.8134 78.1643 22.7851C77.2874 23.7331 76.1261 24.2071 74.6804 24.2071ZM90.8626 24.2071C87.9238 24.2071 85.6131 23.3776 83.9304 21.7186C82.2714 20.0359 81.4419 17.7251 81.4419 14.7863C81.4419 11.8475 82.2714 9.54863 83.9304 7.88963C85.6131 6.20693 87.9238 5.36558 90.8626 5.36558C93.8014 5.36558 96.1003 6.20693 97.7593 7.88963C99.442 9.54863 100.283 11.8475 100.283 14.7863C100.283 17.7251 99.442 20.0359 97.7593 21.7186C96.1003 23.3776 93.8014 24.2071 90.8626 24.2071ZM90.8626 23.4961C91.8106 23.4961 92.6046 22.8325 93.2445 21.5053C93.9081 20.1781 94.2399 17.9384 94.2399 14.7863C94.2399 11.6342 93.9081 9.39458 93.2445 8.06738C92.6046 6.74018 91.8106 6.07658 90.8626 6.07658C89.9146 6.07658 89.1088 6.74018 88.4452 8.06738C87.8053 9.39458 87.4854 11.6342 87.4854 14.7863C87.4854 17.9384 87.8053 20.1781 88.4452 21.5053C89.1088 22.8325 89.9146 23.4961 90.8626 23.4961Z" fill="white"/>
</svg>
