<svg width="102" height="26" viewBox="0 0 102 26" fill="none" xmlns="http://www.w3.org/2000/svg">
<path d="M1.84611 7.45535L0.0456543 6.88283V6.31031H4.5468C5.79511 6.31031 6.77936 6.59021 7.49955 7.15C8.24373 7.68435 8.8799 8.48588 9.40803 9.55458L13.6931 18.3714L17.6901 8.02787L14.9894 6.88283V6.31031H21.6511V6.88283L18.7704 8.02787L11.9287 25.776H10.8484L1.84611 7.45535Z" fill="black"/>
<path d="M31.375 25.9668C28.3022 25.9668 25.9136 25.0762 24.2092 23.295C22.5048 21.4884 21.6525 19.0075 21.6525 15.8523C21.6525 13.7912 22.0246 11.9973 22.7688 10.4706C23.513 8.9439 24.5453 7.77341 25.8656 6.95916C27.21 6.14491 28.7463 5.73779 30.4748 5.73779C32.2032 5.73779 33.7156 6.0813 35.0119 6.76832C36.3323 7.45535 37.3405 8.3841 38.0367 9.55458C38.7569 10.6996 39.117 11.9719 39.117 13.3714C39.117 14.0075 39.057 14.5546 38.9369 15.0126L38.7569 15.6615C37.7246 15.8905 36.6083 16.0813 35.408 16.234C32.8874 16.6157 30.3427 16.8065 27.7741 16.8065C27.7741 19.7581 28.1582 21.8701 28.9264 23.1424C29.6946 24.3892 30.7509 25.0126 32.0952 25.0126C33.0314 25.0126 33.8956 24.7836 34.6879 24.3256C35.5041 23.8421 36.1402 23.2187 36.5963 22.4553C37.0765 21.6665 37.3165 20.865 37.3165 20.0508H38.2167C38.2167 21.0686 37.9287 22.0355 37.3525 22.9515C36.7764 23.8676 35.9722 24.6055 34.9399 25.1653C33.9077 25.6996 32.7193 25.9668 31.375 25.9668ZM27.7741 15.8523C29.3105 15.8523 30.5588 15.7887 31.519 15.6615C31.9272 15.636 32.3593 15.5724 32.8154 15.4706C32.8394 15.3434 32.8994 15.0635 32.9954 14.6309C33.1155 13.9948 33.1755 13.3205 33.1755 12.608C33.1755 10.4961 32.9114 8.95662 32.3833 7.9897C31.8551 6.99733 31.219 6.50115 30.4748 6.50115C28.6743 6.50115 27.7741 9.6182 27.7741 15.8523Z" fill="black"/>
<path d="M41.8022 24.8218L43.9627 24.2492V7.45535L41.8022 6.88283V6.31031H45.043C46.4594 6.31031 47.5757 6.79377 48.3919 7.76069C48.7039 8.14237 48.968 8.61311 49.1841 9.1729C49.5201 8.51133 49.9162 7.93881 50.3724 7.45535C51.4526 6.31031 52.797 5.73779 54.4054 5.73779C55.7497 5.73779 56.95 6.04313 58.0063 6.65382C59.0866 7.23906 59.9268 8.01514 60.5269 8.98207C61.1271 9.94899 61.4272 10.9668 61.4272 12.0355V24.2492L63.5877 24.8218V25.3943H58.9065C56.746 25.3943 55.6657 24.2492 55.6657 21.9592V12.0355C55.6657 10.4324 55.3896 9.21107 54.8375 8.37138C54.3094 7.50624 53.6852 7.07367 52.965 7.07367C52.0528 7.07367 51.2366 7.58257 50.5164 8.60039C50.2043 9.03296 49.9402 9.54186 49.7242 10.1271V24.2492L51.8847 24.8218V25.3943H41.8022V24.8218Z" fill="black"/>
<path d="M75.112 25.9668C73.5276 25.9668 72.1473 25.6615 70.971 25.0508C69.8187 24.4401 68.9305 23.6004 68.3063 22.5317C67.6822 21.463 67.3701 20.2543 67.3701 18.9057V7.26451H64.8494V6.31031H67.3701V4.40191C67.3701 2.11184 68.4504 0.966797 70.6109 0.966797H73.1315V6.31031H78.1728V7.26451H73.1315V18.9057C73.1315 21.2467 73.3596 22.8497 73.8157 23.7149C74.2718 24.58 74.944 25.0126 75.8322 25.0126C76.6964 25.0126 77.4526 24.5673 78.1008 23.6767C78.749 22.7861 79.073 21.5775 79.073 20.0508H79.9733C79.9733 21.9337 79.5292 23.3968 78.6409 24.4401C77.7527 25.4579 76.5764 25.9668 75.112 25.9668Z" fill="black"/>
<path d="M91.5032 25.9668C88.5265 25.9668 86.1859 25.0762 84.4814 23.295C82.801 21.4884 81.9608 19.0075 81.9608 15.8523C81.9608 12.6971 82.801 10.2289 84.4814 8.44771C86.1859 6.6411 88.5265 5.73779 91.5032 5.73779C94.48 5.73779 96.8086 6.6411 98.489 8.44771C100.193 10.2289 101.046 12.6971 101.046 15.8523C101.046 19.0075 100.193 21.4884 98.489 23.295C96.8086 25.0762 94.48 25.9668 91.5032 25.9668ZM91.5032 25.2034C92.4635 25.2034 93.2677 24.491 93.9158 23.066C94.588 21.6411 94.9241 19.2365 94.9241 15.8523C94.9241 12.4681 94.588 10.0635 93.9158 8.63855C93.2677 7.21362 92.4635 6.50115 91.5032 6.50115C90.543 6.50115 89.7268 7.21362 89.0546 8.63855C88.4064 10.0635 88.0824 12.4681 88.0824 15.8523C88.0824 19.2365 88.4064 21.6411 89.0546 23.066C89.7268 24.491 90.543 25.2034 91.5032 25.2034Z" fill="black"/>
</svg>
